# AST/ASF file generated using VICON BodyLanguage
# -----------------------------------------------
:version 1.10
:name VICON
:units
  mass 1.0
  length 0.45
  angle deg
:documentation
   .ast/.asf automatically generated from VICON data using
   VICON BodyBuilder and BodyLanguage model FoxedUp or BRILLIANT.MOD
:root
   order TX TY TZ RX RY RZ
   axis XYZ
   position 0 0 0  
   orientation 0 0 0 
:bonedata
  begin
     id 1 
     name lhipjoint
     direction 0.61886 -0.69539 0.365302 
     length 2.20474 
     axis 0 0 0  XYZ
  end
  begin
     id 2 
     name lfemur
     direction 0.34202 -0.939693 0  
     length 6.65149  
     axis 0 0 20  XYZ
    dof rx ry rz
    limits (-160.0 20.0)
           (-70.0 70.0)
           (-60.0 70.0)
  end
  begin
     id 3 
     name ltibia
     direction 0.34202 -0.939693 0   
     length 6.35814   
     axis 0 0 20   XYZ
    dof rx
    limits (-10.0 170.0)
  end
  begin
     id 4 
     name lfoot
     direction 0.101224 -0.278109 0.955201   
     length 2.18766   
     axis -90 7.62852e-016 20   XYZ
    dof rx rz
    limits (-45.0 90.0)
           (-70.0 20.0)
  end
  begin
     id 5 
     name ltoes
     direction 1.53524e-011 -4.21877e-011 1   
     length 1.09206   
     axis -90 7.62852e-016 20   XYZ
    dof rx
    limits (-90.0 20.0)
  end
  begin
     id 6 
     name rhipjoint
     direction -0.600207 -0.708087 0.371972   
     length 2.1652  
     axis 0 0 0  XYZ 
  end
  begin
     id 7 
     name rfemur
     direction -0.34202 -0.939693 0   
     length 6.54691   
     axis 0 0 -20   XYZ
    dof rx ry rz
    limits (-160.0 20.0)
           (-70.0 70.0)
           (-70.0 60.0)
  end
  begin
     id 8 
     name rtibia
     direction -0.34202 -0.939693 0   
     length 6.37474   
     axis 0 0 -20   XYZ
    dof rx
    limits (-10.0 170.0)
 end
 begin
     id 9 
     name rfoot
     direction -0.111266 -0.3057 0.945604   
     length 2.00903  
     axis -90 -7.62852e-016 -20   XYZ
    dof rx rz
    limits (-45.0 90.0)
           (-20.0 70.0)
  end
  begin
     id 10 
     name rtoes
     direction -1.5362e-011 -4.21913e-011 1   
     length 1.00221   
     axis -90 -7.62852e-016 -20   XYZ
    dof rx
    limits (-90.0 20.0)
  end
  begin
     id 11 
     name lowerback
     direction -0.0224561 0.999731 -0.00577314   
     length 2.10409   
     axis 0 0 0   XYZ
    dof rx ry rz
    limits (-20.0 45.0)
           (-30.0 30.0)
           (-30.0 30.0)
  end
  begin
     id 12 
     name upperback
     direction 0.0213126 0.999185 -0.0342817   
     length 2.09783   
     axis 0 0 0   XYZ
    dof rx ry rz
    limits (-20.0 45.0)
           (-30.0 30.0)
           (-30.0 30.0)
  end
  begin
     id 13 
     name thorax
     direction 0.0312356 0.999036 -0.0308451   
     length 2.09788   
     axis 0 0 0   XYZ
    dof rx ry rz
    limits (-20.0 45.0)
           (-30.0 30.0)
           (-30.0 30.0)
  end
  begin
     id 14 
     name lowerneck
     direction -0.0114419 0.996481 0.0830329   
     length 1.38575   
     axis 0 0 0   XYZ
    dof rx ry rz
    limits (-20.0 45.0)
           (-30.0 30.0)
           (-30.0 30.0)
  end
  begin
     id 15 
     name upperneck
     direction -0.0075675 0.996187 -0.0869092   
     length 1.39401   
     axis 0 0 0   XYZ
    dof rx ry rz
    limits (-20.0 45.0)
           (-30.0 30.0)
           (-30.0 30.0)
  end
  begin
     id 16
     name head
     direction -0.00222073 0.999264 -0.0382974  
     length 1.3964  
     axis 0 0 0   XYZ
    dof rx ry rz
    limits (-20.0 45.0)
           (-30.0 30.0)
           (-30.0 30.0)
  end
  begin
     id 17 
     name lclavicle
     direction 0.965962 0.222138 0.132556  
     length 2.81514  
     axis 0 0 0   XYZ
    dof ry rz
    limits (-20.0 10.0)
           (0.0 20.0)
  end
  begin
     id 18 
     name lhumerus
     direction 1 -4.48972e-011 7.03471e-018   
     length 4.47366   
     axis 180 -30 -90   XYZ
    dof rx ry rz
    limits (-60.0 90.0)
           (-90.0 90.0)
           (-90.0 90.0)
  end
  begin
     id 19
     name lradius
     direction 1 -4.48951e-011 -6.22192e-028   
     length 3.19948   
     axis 180 -30 -90   XYZ
    dof rx
    limits (-10.0 170.0)
  end
  begin
     id 20
     name lwrist
     direction 1 -4.48967e-011 -1.24264e-027   
     length 1.59974   
     axis 1.40095e-015 90 90   XYZ
    dof ry
    limits (-180.0 0.0)
 end
  begin
     id 21 
     name lhand
     direction 1 -4.4897e-011 -2.48528e-027   
     length 0.492667   
     axis 1.58582e-015 90 90   XYZ
    dof rx rz
    limits (-90.0 90.0)
           (-45.0 45.0)
  end
  begin
     id 22 
     name lfingers
     direction 1 -4.48996e-011 -4.97056e-027   
     length 0.397201   
     axis 3.17164e-015 90 90   XYZ
    dof rx
    limits (0.0 90.0)
  end
  begin
     id 23
     name lthumb
     direction 0.707107 -6.34981e-011 0.707107   
     length 0.570303   
     axis -90 45 2.85299e-015   XYZ
    dof rx rz
    limits (-45.0 45.0)
           (-45.0 45.0)
  end
  begin
     id 24 
     name rclavicle
     direction -0.961164 0.229034 0.153972   
     length 3.09348  
     axis 0 0 0   XYZ 
    dof ry rz
    limits (-10.0 20.0)
           (-20.0 0.0)
  end
  begin
     id 25 
     name rhumerus
     direction -1 -4.48971e-011 -9.06263e-028  
     length 4.3269   
     axis 180 30 90   XYZ
    dof rx ry rz
    limits (-90.0 60.0)
           (-90.0 90.0)
           (-90.0 90.0)
  end
  begin
     id 26 
     name rradius
     direction -1 -4.48953e-011 1.44659e-027   
     length 3.1896   
     axis 180 30 90   XYZ
    dof rx
    limits (-10.0 170.0)
  end
  begin
     id 27 
     name rwrist
     direction -1 -4.48988e-011 -1.24264e-027   
     length 1.5948   
     axis 1.40095e-015 -90 -90   XYZ
    dof ry
    limits (-180.0 0.0)
  end
  begin
     id 28
     name rhand
     direction -1 -4.49033e-011 -2.48528e-027   
     length 0.464496   
     axis 1.58582e-015 -90 -90   XYZ
    dof rx rz
    limits (-90.0 90.0)
           (-45.0 45.0)
  end
  begin
     id 29
     name rfingers
     direction -1 -4.48905e-011 -4.97056e-027   
     length 0.374489   
     axis 3.17164e-015 -90 -90   XYZ
    dof rx
    limits (0.0 90.0)
  end
  begin
     id 30
     name rthumb
     direction -0.707107 -6.34909e-011 0.707107   
     length 0.537693   
     axis -90 -45 -2.85299e-015   XYZ
    dof rx rz
    limits (-45.0 45.0)
           (-45.0 45.0)
  end
:hierarchy
  begin
    root lhipjoint rhipjoint lowerback
    lhipjoint lfemur
    lfemur ltibia
    ltibia lfoot
    lfoot ltoes
    rhipjoint rfemur
    rfemur rtibia
    rtibia rfoot
    rfoot rtoes
    lowerback upperback
    upperback thorax
    thorax lowerneck lclavicle rclavicle
    lowerneck upperneck
    upperneck head
    lclavicle lhumerus
    lhumerus lradius
    lradius lwrist
    lwrist lhand lthumb
    lhand lfingers
    rclavicle rhumerus
    rhumerus rradius
    rradius rwrist
    rwrist rhand rthumb
    rhand rfingers
  end

#!OML:ASF G:\acrobat\cartwheel_test 2\Patient 1\Session 2\acrobat4.ASF
:FULLY-SPECIFIED
:DEGREES
1139
root 4.11899 15.0648 28.4256 11.3705 174.887 363.134
lowerback 1.41911 -1.88176 -2.84771
upperback 0.678246 -2.393 4.77994
thorax 0.229812 -1.16008 6.58636
lowerneck -8.46861 0.000999407 1.41608
upperneck 8.48803 0.185494 -3.01936
head 4.34032 0.00979178 -1.26197
rclavicle -3.8763e-014 -3.18055e-014
rhumerus -39.5894 -0.451006 -60.0103
rradius 121.854
rwrist 4.30495
rhand -27.6089 341.675
rfingers 7.12502
rthumb -1.00823 -408.303
lclavicle -3.8763e-014 -3.18055e-014
lhumerus -38.61 -16.3516 89.3632
lradius 128.596
lwrist 4.97715
lhand -46.0167 -374.122
lfingers 7.12502
lthumb -18.7618 14.993
rfemur -40.8581 -4.75679 15.3748
rtibia 46.2921
rfoot -27.5019 -23.7685
rtoes -15.5631
lfemur -368.184 -6.96038 -383.137
ltibia 32.6471
lfoot 143.542 -152.215
ltoes -9.89811
1140
root 4.17697 15.0615 28.4189 11.2312 174.773 363.007
lowerback 1.45517 -1.78193 -2.89523
upperback 0.662462 -2.26626 4.68793
thorax 0.173997 -1.09715 6.5173
lowerneck -8.38979 -0.0150345 1.41924
upperneck 8.46138 0.165011 -3.0272
head 4.3142 0.000371782 -1.26559
rclavicle 1.78906e-014 -8.74653e-015
rhumerus -39.2837 -0.254093 -60.6052
rradius 121.634
rwrist 4.60864
rhand -27.1246 340.909
rfingers 7.12502
rthumb -0.540401 -409.07
lclavicle 1.78906e-014 -8.74653e-015
lhumerus -38.4931 -16.2851 89.1684
lradius 128.649
lwrist 5.00538
lhand -45.9691 -373.802
lfingers 7.12502
lthumb -18.716 15.3173
rfemur -40.6314 -5.18045 15.1139
rtibia 45.9103
rfoot -27.3046 -25.113
rtoes -14.9936
lfemur -367.806 -7.36512 -383.137
ltibia 32.3845
lfoot 143.364 -151.835
ltoes -9.55396
1141
root 4.24194 15.0581 28.402 11.1616 174.535 363.094
lowerback 1.45722 -1.69571 -2.78294
upperback 0.623076 -2.14932 4.65414
thorax 0.110653 -1.03567 6.41715
lowerneck -8.41895 0.032077 1.44166
upperneck 8.45269 0.215164 -2.9496
head 4.31788 0.0287298 -1.24024
rclavicle -3.07122e-014 2.06736e-014
rhumerus -39.1458 -0.0735873 -61.2478
rradius 121.371
rwrist 4.92091
rhand -26.6589 340.549
rfingers 7.12502
rthumb -0.0906317 -409.431
lclavicle -3.07122e-014 2.06736e-014
lhumerus -38.3935 -16.2348 88.9588
lradius 128.723
lwrist 5.02703
lhand -46.0944 -373.869
lfingers 7.12502
lthumb -18.8365 15.2392
rfemur -40.5078 -5.61321 15.2482
rtibia 45.6101
rfoot -26.6762 -26.4193
rtoes -14.7393
lfemur -367.412 -7.87112 -382.934
ltibia 32.1445
lfoot 142.982 -151.38
ltoes -8.8339
1142
root 4.31027 15.0552 28.3779 11.192 174.102 363.116
lowerback 1.3323 -1.612 -2.79931
upperback 0.565289 -2.03919 4.62403
thorax 0.105971 -0.980442 6.39121
lowerneck -8.54326 0.122048 1.45233
upperneck 8.55682 0.323193 -2.83521
head 4.38284 0.086448 -1.19829
rclavicle 4.57205e-015 6.91771e-014
rhumerus -39.1321 0.152736 -61.8583
rradius 121.073
rwrist 5.30205
rhand -26.8228 340.602
rfingers 7.12502
rthumb -0.248914 -409.377
lclavicle 4.57205e-015 6.91771e-014
lhumerus -38.2118 -16.1664 88.7502
lradius 128.671
lwrist 5.06843
lhand -46.1616 -373.982
lfingers 7.12502
lthumb -18.9011 15.1197
rfemur -40.6243 -6.23232 15.5121
rtibia 45.3668
rfoot -25.5988 -27.7063
rtoes -15.1021
lfemur -367.106 -8.34959 -382.84
ltibia 31.9012
lfoot 142.573 -150.781
ltoes -8.13994
1143
root 4.38082 15.051 28.3463 11.2262 173.494 363.079
lowerback 1.12462 -1.51843 -2.86911
upperback 0.547548 -1.91942 4.56101
thorax 0.18848 -0.924642 6.35836
lowerneck -8.69288 0.180185 1.50054
upperneck 8.66128 0.390756 -2.79162
head 4.45298 0.121971 -1.1898
rclavicle 2.06736e-014 3.26007e-014
rhumerus -39.1472 0.303865 -62.4233
rradius 120.662
rwrist 5.79979
rhand -27.0323 341.124
rfingers 7.12502
rthumb -0.451252 -408.855
lclavicle 2.06736e-014 3.26007e-014
lhumerus -38.0389 -16.1039 88.5663
lradius 128.645
lwrist 5.20239
lhand -45.908 -373.404
lfingers 7.12502
lthumb -18.6572 15.7209
rfemur -40.7878 -6.90354 15.8218
rtibia 45.1824
rfoot -24.6324 -29.0841
rtoes -14.7375
lfemur -366.738 -9.14994 -382.929
ltibia 31.6716
lfoot 141.87 -149.816
ltoes -7.45519
1144
root 4.45577 15.0506 28.3047 11.4397 172.558 363.134
lowerback 0.64717 -1.369 -2.88663
upperback 0.522801 -1.72232 4.48986
thorax 0.403106 -0.833086 6.28085
lowerneck -8.72878 0.214784 1.60673
upperneck 8.61952 0.418929 -2.78615
head 4.4466 0.138546 -1.20526
rclavicle 5.46658e-015 -1.19271e-014
rhumerus -39.0899 0.331988 -62.9518
rradius 120.061
rwrist 6.20127
rhand -27.1238 342.199
rfingers 7.12502
rthumb -0.539668 -407.78
lclavicle 5.46658e-015 -1.19271e-014
lhumerus -37.822 -16.0874 88.3965
lradius 128.556
lwrist 5.28999
lhand -45.807 -373.014
lfingers 7.12502
lthumb -18.56 16.1211
rfemur -41.2125 -7.83559 16.4922
rtibia 45.0773
rfoot -23.6736 -30.0947
rtoes -14.0551
lfemur -366.552 -8.9577 -382.883
ltibia 31.485
lfoot 141.598 -149.096
ltoes -7.74908
1145
root 4.53474 15.0459 28.2575 11.6925 171.48 363.197
lowerback 0.335471 -1.22043 -2.88179
upperback 0.298914 -1.52371 4.41909
thorax 0.319008 -0.729301 6.19957
lowerneck -8.5148 0.252011 1.77134
upperneck 8.61222 0.459445 -2.85661
head 4.40325 0.162934 -1.25512
rclavicle 1.16289e-014 -3.49861e-014
rhumerus -39.3192 0.483216 -63.4015
rradius 119.434
rwrist 6.51349
rhand -27.5226 342.561
rfingers 7.12502
rthumb -0.924871 -407.417
lclavicle 1.16289e-014 -3.49861e-014
lhumerus -37.9793 -16.1312 88.3789
lradius 128.379
lwrist 5.17837
lhand -45.8408 -372.764
lfingers 7.12502
lthumb -18.5925 16.3675
rfemur -41.6613 -9.15627 17.4367
rtibia 45.0922
rfoot -23.3988 -30.4247
rtoes -12.8914
lfemur -366.435 -8.26847 -382.828
ltibia 31.347
lfoot 141.829 -148.251
ltoes -9.03318
